<svg width="621" height="221" viewBox="0 0 621 221" fill="none" xmlns="http://www.w3.org/2000/svg">
<path d="M169.369 71.2356C160.839 71.2356 155.689 64.5256 155.689 57.2456C155.689 49.9656 160.829 43.2556 169.369 43.2556C177.909 43.2556 183.049 49.9556 183.049 57.2456C183.049 64.5356 177.909 71.2356 169.369 71.2356ZM169.369 32.7656C155.309 32.7656 144.049 42.5756 144.049 57.2456C144.049 71.9156 155.299 81.7256 169.369 81.7256C183.439 81.7256 194.679 71.9156 194.679 57.2456C194.679 42.5756 183.429 32.7656 169.369 32.7656" fill="#E8F0F3"/>
<path d="M80.3685 10.1543H68.7285V80.5643H80.3685V10.1543Z" fill="#E8F0F3"/>
<path d="M113.47 71.2356C104.92 71.2356 99.7904 64.5256 99.7904 57.2456C99.7904 49.9656 104.93 43.2556 113.47 43.2556C122.01 43.2556 127.15 49.9556 127.15 57.2456C127.15 64.5356 122.02 71.2356 113.47 71.2356M113.47 32.7656C99.4104 32.7656 88.1504 42.5756 88.1504 57.2456C88.1504 71.9156 99.4004 81.7256 113.47 81.7256C127.54 81.7256 138.78 71.9156 138.78 57.2456C138.78 42.5756 127.53 32.7656 113.47 32.7656" fill="#E8F0F3"/>
<path d="M22.2395 70.0652V50.2552H33.9795C43.8695 50.2552 48.5295 52.7752 48.5295 59.9652C48.5295 68.9952 39.7995 70.0752 33.4895 70.0752H22.2395V70.0652ZM22.2395 22.2652H32.3295C41.5495 22.2652 45.6195 25.1752 45.6195 31.1052C45.6195 36.2652 41.5395 39.7552 33.3995 39.7552H22.2395V22.2752V22.2652ZM60.7595 60.9252C60.7595 52.0852 54.5495 45.2852 45.9195 44.3152V44.1252C52.9895 41.9952 57.8495 36.8452 57.8495 29.0652C57.8395 16.5352 47.1695 11.7852 36.7895 11.7852H10.0195V80.5652H34.7495C47.7495 80.5652 60.7495 75.8952 60.7495 60.9352" fill="#E8F0F3"/>
<path d="M308.32 71.2343C299.79 71.2343 294.64 64.5243 294.64 57.2443C294.64 49.9643 299.78 43.2543 308.32 43.2543C316.86 43.2543 322 49.9543 322 57.2443C322 64.5343 316.85 71.2343 308.32 71.2343ZM311.14 32.7643C302.41 32.7643 297.75 36.8443 295.33 39.8643H295.04V10.1543H283.4V80.5643H294.46V73.5743H294.65C298.05 79.2043 304.15 81.7343 310.66 81.7343C325.02 81.7343 333.65 71.0443 333.65 57.2543C333.65 43.4643 324.44 32.7743 311.14 32.7743V32.7643Z" fill="#E8F0F3"/>
<path d="M362.58 41.5156C369.85 41.5156 374.32 45.7856 374.41 52.5956H350.54C351.42 45.8856 355.69 41.5156 362.57 41.5156H362.58ZM383.92 72.4156L375.58 66.1056C372.68 69.6956 368.89 72.4156 363.06 72.4156C356.56 72.4156 351.32 68.2456 350.54 61.3356H386.04V58.1256C386.04 41.9056 377.21 32.7656 364.22 32.7656C350.15 32.7656 338.9 42.5756 338.9 57.2456C338.9 71.9156 350.15 81.7256 364.22 81.7256C371.59 81.7256 378.48 79.1056 383.91 72.3956L383.92 72.4156Z" fill="#E8F0F3"/>
<path d="M405.48 41.3156H405.29V33.9356H393.65V80.5656H405.29V55.5956C405.29 53.0656 406.84 43.8356 417.81 43.8356C419.66 43.8356 421.49 44.2256 423.43 44.7156V33.4456C422.08 33.0556 420.72 32.7656 419.27 32.7656C413.15 32.7656 408.02 35.9756 405.49 41.3056L405.48 41.3156Z" fill="#E8F0F3"/>
<path d="M449.369 70.6541C441.519 70.6541 435.689 64.5241 435.689 57.1541C435.689 48.8941 441.319 43.2641 449.469 43.2641C457.619 43.2641 463.249 48.9041 463.249 56.9641C463.249 65.0241 458.009 70.6641 449.379 70.6641L449.369 70.6541ZM463.229 33.9041V40.9141H463.049C459.649 35.2741 453.549 32.7441 447.039 32.7441C432.679 32.7441 424.049 43.4341 424.049 57.2241C424.049 71.0141 433.259 81.1241 447.229 81.1241C453.059 81.1241 459.059 78.8841 462.459 74.3141H462.649V77.7141C462.649 86.9441 459.159 93.3541 447.909 93.3541C441.409 93.3541 436.559 90.9241 431.899 86.6441L424.909 96.1641C431.509 101.994 439.359 103.834 447.999 103.834C466.139 103.834 474.289 93.1441 474.289 76.3441V33.9141H463.229V33.9041Z" fill="#E8F0F3"/>
<path d="M262.331 54.1356V80.5656H273.971V52.7756C273.971 41.6056 269.611 32.7656 257.191 32.7656C250.201 32.7656 245.261 35.4856 241.861 41.4256C239.431 35.5956 234.481 32.7656 227.311 32.7656C219.551 32.7656 215.091 36.8456 213.051 41.2156H212.861V33.9356H201.811V80.5656H213.451V55.1156C213.451 48.8956 216.451 43.2656 224.111 43.2656C229.741 43.2656 232.071 47.0556 232.071 52.7856V80.5756H243.711V55.3156C243.711 49.2956 246.441 43.2656 253.701 43.2656C260.581 43.2656 262.331 48.3056 262.331 54.1456H262.321L262.331 54.1356Z" fill="#E8F0F3"/>
<path d="M70.53 187.565V118.889H58.308V170.299H58.114L26.201 118.889H10.002V187.565H22.224V134.506H22.418L55.01 187.565H70.53Z" fill="#E8F0F3"/>
<path d="M89.1805 159.629C89.6655 153.13 95.1945 148.377 102.081 148.377C109.647 148.377 113.042 153.615 113.042 159.629H89.1805ZM124.585 167.971C124.682 166.904 124.682 165.934 124.682 164.867C124.682 148.086 115.176 139.647 102.178 139.647C88.1135 139.647 77.5405 149.541 77.5405 164.576C77.5405 179.708 88.2105 188.923 102.566 188.923C111.393 188.923 117.989 185.819 122.548 179.611L114.788 173.403C112.169 177.089 108.289 179.417 102.469 179.417C95.6795 179.417 89.6655 174.567 89.1805 167.971H124.585Z" fill="#E8F0F3"/>
<path d="M186.59 187.565L202.692 141.005H190.567L180.673 174.373H180.479L170.391 141.005H157.975L147.984 174.373H147.79L138.09 141.005H125.48L141.679 187.565H153.513L163.989 154.973H164.183L174.756 187.565H186.59Z" fill="#E8F0F3"/>
<path d="M275.294 187.565V176.701H240.277V157.301H271.802V147.019H240.277V129.559H273.548V118.889H228.055V187.565H275.294Z" fill="#E8F0F3"/>
<path d="M314.225 175.052C311.994 177.768 308.017 179.223 304.428 179.223C295.601 179.223 291.236 171.56 291.236 164.285C291.236 157.01 295.504 149.347 304.04 149.347C307.823 149.347 311.8 151.287 313.643 153.906L321.597 146.922C317.911 142.363 310.83 139.647 304.04 139.647C290.363 139.647 279.111 149.153 279.111 164.285C279.111 179.805 290.557 188.923 304.331 188.923C311.218 188.923 317.62 186.595 321.5 182.424L314.225 175.052Z" fill="#E8F0F3"/>
<path d="M374.198 164.091C374.198 149.444 362.946 139.647 348.881 139.647C334.816 139.647 323.564 149.444 323.564 164.091C323.564 178.738 334.816 188.923 348.881 188.923C362.946 188.923 374.198 178.738 374.198 164.091ZM348.881 179.223C339.666 179.223 335.398 171.366 335.398 164.091C335.398 156.816 339.666 149.153 348.881 149.153C358.096 149.153 362.364 156.816 362.364 164.091C362.364 171.366 358.096 179.223 348.881 179.223Z" fill="#E8F0F3"/>
<path d="M423.508 187.565V158.465C423.508 148.959 418.464 139.647 406.339 139.647C399.452 139.647 393.923 143.818 391.886 148.474H391.692V141.005H380.634V187.565H392.274V161.957C392.274 155.749 395.766 149.347 403.138 149.347C410.607 149.347 411.868 156.234 411.868 161.763V187.565H423.508Z" fill="#E8F0F3"/>
<path d="M480.159 164.091C480.159 149.444 468.907 139.647 454.842 139.647C440.777 139.647 429.525 149.444 429.525 164.091C429.525 178.738 440.777 188.923 454.842 188.923C468.907 188.923 480.159 178.738 480.159 164.091ZM454.842 179.223C445.627 179.223 441.359 171.366 441.359 164.091C441.359 156.816 445.627 149.153 454.842 149.153C464.057 149.153 468.325 156.816 468.325 164.091C468.325 171.366 464.057 179.223 454.842 179.223Z" fill="#E8F0F3"/>
<path d="M559.346 187.565V158.465C559.346 148.959 554.302 139.647 542.177 139.647C535.193 139.647 529.955 142.848 526.851 148.474C524.232 143.236 519.479 139.647 512.301 139.647C504.832 139.647 499.885 143.915 497.848 148.474H497.654V141.005H486.596V187.565H498.236V161.957C498.236 155.749 501.437 149.347 508.421 149.347C514.338 149.347 517.054 153.712 517.054 159.435V187.565H528.694V162.151C528.694 156.137 531.701 149.347 538.976 149.347C546.445 149.347 547.706 156.234 547.706 161.763V187.565H559.346Z" fill="#E8F0F3"/>
<path d="M565.131 210.166C567.168 210.651 569.205 210.845 571.145 210.845C581.427 210.845 585.501 205.995 588.799 197.556L610.818 141.005H598.693L587.15 174.858H586.956L573.958 141.005H561.057L581.039 187.565L578.711 193.482C576.771 198.332 575.413 200.757 570.466 200.757C569.205 200.757 567.653 200.563 566.101 200.078L565.131 210.166Z" fill="#E8F0F3"/>
</svg>
