<svg width="1119" height="115" viewBox="0 0 1119 115" fill="none" xmlns="http://www.w3.org/2000/svg">
<path d="M169.353 71.9934C160.823 71.9934 155.673 65.2834 155.673 58.0034C155.673 50.7234 160.813 44.0134 169.353 44.0134C177.893 44.0134 183.033 50.7134 183.033 58.0034C183.033 65.2934 177.893 71.9934 169.353 71.9934ZM169.353 33.5234C155.293 33.5234 144.033 43.3334 144.033 58.0034C144.033 72.6734 155.283 82.4834 169.353 82.4834C183.423 82.4834 194.663 72.6734 194.663 58.0034C194.663 43.3334 183.413 33.5234 169.353 33.5234" fill="#E8F0F3"/>
<path d="M80.3529 10.9141H68.7129V81.3241H80.3529V10.9141Z" fill="#E8F0F3"/>
<path d="M113.451 71.9934C104.901 71.9934 99.7709 65.2834 99.7709 58.0034C99.7709 50.7234 104.911 44.0134 113.451 44.0134C121.991 44.0134 127.131 50.7134 127.131 58.0034C127.131 65.2934 122.001 71.9934 113.451 71.9934M113.451 33.5234C99.3909 33.5234 88.1309 43.3334 88.1309 58.0034C88.1309 72.6734 99.3809 82.4834 113.451 82.4834C127.521 82.4834 138.761 72.6734 138.761 58.0034C138.761 43.3334 127.511 33.5234 113.451 33.5234" fill="#E8F0F3"/>
<path d="M22.222 70.8269V51.0169H33.962C43.852 51.0169 48.512 53.5369 48.512 60.7269C48.512 69.7569 39.782 70.8369 33.472 70.8369H22.222V70.8269ZM22.222 23.0269H32.312C41.532 23.0269 45.602 25.9369 45.602 31.8669C45.602 37.0269 41.522 40.5169 33.382 40.5169H22.222V23.0369V23.0269ZM60.742 61.6869C60.742 52.8469 54.532 46.0469 45.902 45.0769V44.8869C52.972 42.7569 57.832 37.6069 57.832 29.8269C57.822 17.2969 47.152 12.5469 36.772 12.5469H10.002V81.3269H34.732C47.732 81.3269 60.732 76.6569 60.732 61.6969" fill="#E8F0F3"/>
<path d="M308.303 71.9941C299.773 71.9941 294.623 65.2841 294.623 58.0041C294.623 50.7241 299.763 44.0141 308.303 44.0141C316.843 44.0141 321.983 50.7141 321.983 58.0041C321.983 65.2941 316.833 71.9941 308.303 71.9941ZM311.123 33.5241C302.393 33.5241 297.733 37.6041 295.313 40.6241H295.023V10.9141H283.383V81.3241H294.443V74.3341H294.633C298.033 79.9641 304.133 82.4941 310.643 82.4941C325.003 82.4941 333.633 71.8041 333.633 58.0141C333.633 44.2241 324.423 33.5341 311.123 33.5341V33.5241Z" fill="#E8F0F3"/>
<path d="M362.561 42.2734C369.831 42.2734 374.301 46.5434 374.391 53.3534H350.521C351.401 46.6434 355.671 42.2734 362.551 42.2734H362.561ZM383.901 73.1734L375.561 66.8634C372.661 70.4534 368.871 73.1734 363.041 73.1734C356.541 73.1734 351.301 69.0034 350.521 62.0934H386.021V58.8834C386.021 42.6634 377.191 33.5234 364.201 33.5234C350.131 33.5234 338.881 43.3334 338.881 58.0034C338.881 72.6734 350.131 82.4834 364.201 82.4834C371.571 82.4834 378.461 79.8634 383.891 73.1534L383.901 73.1734Z" fill="#E8F0F3"/>
<path d="M405.461 42.0734H405.271V34.6934H393.631V81.3234H405.271V56.3534C405.271 53.8234 406.821 44.5934 417.791 44.5934C419.641 44.5934 421.471 44.9834 423.411 45.4734V34.2034C422.061 33.8134 420.701 33.5234 419.251 33.5234C413.131 33.5234 408.001 36.7334 405.471 42.0634L405.461 42.0734Z" fill="#E8F0F3"/>
<path d="M449.353 71.4139C441.503 71.4139 435.673 65.2839 435.673 57.9139C435.673 49.6539 441.303 44.0239 449.453 44.0239C457.603 44.0239 463.233 49.6639 463.233 57.7239C463.233 65.7839 457.993 71.4239 449.363 71.4239L449.353 71.4139ZM463.213 34.6639V41.6739H463.033C459.633 36.0339 453.533 33.5039 447.023 33.5039C432.663 33.5039 424.033 44.1939 424.033 57.9839C424.033 71.7739 433.243 81.8839 447.213 81.8839C453.043 81.8839 459.043 79.6439 462.443 75.0739H462.633V78.4739C462.633 87.7039 459.143 94.1139 447.893 94.1139C441.393 94.1139 436.543 91.6839 431.883 87.4039L424.893 96.9239C431.493 102.754 439.343 104.594 447.983 104.594C466.123 104.594 474.273 93.9039 474.273 77.1039V34.6739H463.213V34.6639Z" fill="#E8F0F3"/>
<path d="M262.311 54.8934V81.3234H273.951V53.5334C273.951 42.3634 269.591 33.5234 257.171 33.5234C250.181 33.5234 245.241 36.2434 241.841 42.1834C239.411 36.3534 234.461 33.5234 227.291 33.5234C219.531 33.5234 215.071 37.6034 213.031 41.9734H212.841V34.6934H201.791V81.3234H213.431V55.8734C213.431 49.6534 216.431 44.0234 224.091 44.0234C229.721 44.0234 232.051 47.8134 232.051 53.5434V81.3334H243.691V56.0734C243.691 50.0534 246.421 44.0234 253.681 44.0234C260.561 44.0234 262.311 49.0634 262.311 54.9034H262.301L262.311 54.8934Z" fill="#E8F0F3"/>
<path d="M567.85 81.3244V12.6484H555.628V64.0584H555.434L523.521 12.6484H507.322V81.3244H519.544V28.2654H519.738L552.33 81.3244H567.85Z" fill="#E8F0F3"/>
<path d="M586.501 53.3884C586.986 46.8894 592.515 42.1364 599.402 42.1364C606.968 42.1364 610.363 47.3744 610.363 53.3884H586.501ZM621.906 61.7304C622.003 60.6634 622.003 59.6934 622.003 58.6264C622.003 41.8454 612.497 33.4064 599.499 33.4064C585.434 33.4064 574.861 43.3004 574.861 58.3354C574.861 73.4674 585.531 82.6824 599.887 82.6824C608.714 82.6824 615.31 79.5784 619.869 73.3704L612.109 67.1624C609.49 70.8484 605.61 73.1764 599.79 73.1764C593 73.1764 586.986 68.3264 586.501 61.7304H621.906Z" fill="#E8F0F3"/>
<path d="M683.91 81.3244L700.012 34.7644H687.887L677.993 68.1324H677.799L667.711 34.7644H655.295L645.304 68.1324H645.11L635.41 34.7644H622.8L638.999 81.3244H650.833L661.309 48.7324H661.503L672.076 81.3244H683.91Z" fill="#E8F0F3"/>
<path d="M772.614 81.3244V70.4604H737.597V51.0604H769.122V40.7784H737.597V23.3184H770.868V12.6484H725.375V81.3244H772.614Z" fill="#E8F0F3"/>
<path d="M811.545 68.8114C809.314 71.5274 805.337 72.9824 801.748 72.9824C792.921 72.9824 788.556 65.3194 788.556 58.0444C788.556 50.7694 792.824 43.1064 801.36 43.1064C805.143 43.1064 809.12 45.0464 810.963 47.6654L818.917 40.6814C815.231 36.1224 808.15 33.4064 801.36 33.4064C787.683 33.4064 776.431 42.9124 776.431 58.0444C776.431 73.5644 787.877 82.6824 801.651 82.6824C808.538 82.6824 814.94 80.3544 818.82 76.1834L811.545 68.8114Z" fill="#E8F0F3"/>
<path d="M871.519 57.8504C871.519 43.2034 860.267 33.4064 846.202 33.4064C832.137 33.4064 820.885 43.2034 820.885 57.8504C820.885 72.4974 832.137 82.6824 846.202 82.6824C860.267 82.6824 871.519 72.4974 871.519 57.8504ZM846.202 72.9824C836.987 72.9824 832.719 65.1254 832.719 57.8504C832.719 50.5754 836.987 42.9124 846.202 42.9124C855.417 42.9124 859.685 50.5754 859.685 57.8504C859.685 65.1254 855.417 72.9824 846.202 72.9824Z" fill="#E8F0F3"/>
<path d="M920.829 81.3244V52.2244C920.829 42.7184 915.785 33.4064 903.66 33.4064C896.773 33.4064 891.244 37.5774 889.207 42.2334H889.013V34.7644H877.955V81.3244H889.595V55.7164C889.595 49.5084 893.087 43.1064 900.459 43.1064C907.928 43.1064 909.189 49.9934 909.189 55.5224V81.3244H920.829Z" fill="#E8F0F3"/>
<path d="M977.48 57.8504C977.48 43.2034 966.228 33.4064 952.163 33.4064C938.098 33.4064 926.846 43.2034 926.846 57.8504C926.846 72.4974 938.098 82.6824 952.163 82.6824C966.228 82.6824 977.48 72.4974 977.48 57.8504ZM952.163 72.9824C942.948 72.9824 938.68 65.1254 938.68 57.8504C938.68 50.5754 942.948 42.9124 952.163 42.9124C961.378 42.9124 965.646 50.5754 965.646 57.8504C965.646 65.1254 961.378 72.9824 952.163 72.9824Z" fill="#E8F0F3"/>
<path d="M1056.67 81.3244V52.2244C1056.67 42.7184 1051.62 33.4064 1039.5 33.4064C1032.51 33.4064 1027.27 36.6074 1024.17 42.2334C1021.55 36.9954 1016.8 33.4064 1009.62 33.4064C1002.15 33.4064 997.205 37.6744 995.168 42.2334H994.974V34.7644H983.916V81.3244H995.556V55.7164C995.556 49.5084 998.757 43.1064 1005.74 43.1064C1011.66 43.1064 1014.37 47.4714 1014.37 53.1944V81.3244H1026.01V55.9104C1026.01 49.8964 1029.02 43.1064 1036.3 43.1064C1043.76 43.1064 1045.03 49.9934 1045.03 55.5224V81.3244H1056.67Z" fill="#E8F0F3"/>
<path d="M1062.45 103.925C1064.49 104.41 1066.53 104.604 1068.47 104.604C1078.75 104.604 1082.82 99.7544 1086.12 91.3154L1108.14 34.7644H1096.01L1084.47 68.6174H1084.28L1071.28 34.7644H1058.38L1078.36 81.3244L1076.03 87.2414C1074.09 92.0914 1072.73 94.5164 1067.79 94.5164C1066.53 94.5164 1064.97 94.3224 1063.42 93.8374L1062.45 103.925Z" fill="#E8F0F3"/>
</svg>
